<svg width="179" height="82" viewBox="0 0 179 82" fill="none" xmlns="http://www.w3.org/2000/svg">
<path d="M4.45359 50.3666L17.3434 46.2496C17.3434 46.2496 18.1014 39.7355 22.0327 34.7142C26.1731 29.4259 35.231 19.7836 47.6628 19.9819C62.8716 20.0641 80.7891 25.3719 81.2807 50.3669C80.9399 69.5092 69.1977 79.8136 43.0728 79.3969C16.7533 78.977 14.7139 66.1792 13.9729 56.7527L4.45359 50.3666Z" stroke="#0000FE" stroke-width="3"/>
<path d="M61.9109 16.9542C65.5214 7.10761 74.3146 2.20477 86.7464 2.40308C101.955 2.48522 128.978 4.24412 129.47 29.2391C129.129 48.3814 117.387 58.6858 91.2618 58.269" stroke="#0000FE" stroke-width="3"/>
<path d="M176.381 25.1987C169.111 24.7529 161.992 25.3579 154.738 26.0904" stroke="#0000FE" stroke-width="3"/>
<path d="M176.988 71.8867C169.354 66.8338 153.364 57.4202 145.321 53.3088" stroke="#0000FE" stroke-width="3"/>
</svg>
