<svg width="20" height="15" viewBox="0 0 20 15" fill="none" xmlns="http://www.w3.org/2000/svg">
<path d="M18 6L19.4142 7.41421L12.7112 14.1173C12.3206 14.5078 11.6875 14.5078 11.297 14.1173C10.9064 13.7267 10.9064 13.0936 11.297 12.703L18 6Z" fill="white"/>
<path d="M19.4102 7.41019L17.9959 8.8244L11.2929 2.12134C10.9024 1.73081 10.9024 1.09765 11.2929 0.707121C11.6834 0.316597 12.3166 0.316597 12.7071 0.707122L19.4102 7.41019Z" fill="white"/>
<path d="M17 6.41406V8.41406L1 8.41406C0.447716 8.41406 0 7.96635 0 7.41406C0 6.86178 0.447716 6.41406 1 6.41406L17 6.41406Z" fill="white"/>
</svg>
