<svg width="40" height="26" viewBox="0 0 40 26" fill="none" xmlns="http://www.w3.org/2000/svg">
<path d="M2.05176 14.5319L0.601282 12.9998L11.4797 1.5095C11.8802 1.08643 12.5296 1.08643 12.9302 1.5095C13.3307 1.93257 13.3307 2.6185 12.9302 3.04157L2.05176 14.5319Z" fill="white"/>
<path d="M0.604492 13.0042L2.05497 11.4721L12.9295 22.9584C13.3301 23.3814 13.3301 24.0674 12.9295 24.4904C12.529 24.9135 11.8796 24.9135 11.479 24.4904L0.604492 13.0042Z" fill="white"/>
<path d="M3.07715 14.0833L3.07715 11.9167L38.9169 11.9167C39.5152 11.9167 40.0002 12.4017 40.0002 13C40.0002 13.5983 39.5152 14.0833 38.9169 14.0833L3.07715 14.0833Z" fill="white"/>
</svg>
