<svg width="145" height="106" viewBox="0 0 145 106" fill="none" xmlns="http://www.w3.org/2000/svg">
<path d="M97.7294 14L106.96 24.1312L120.019 19.9726L122.948 33.3617L136.337 36.29L132.178 49.3494L142.309 58.5799L132.178 67.8105L136.337 80.8699L122.948 83.7982L120.019 97.1873L106.96 93.0287L97.7294 103.16L88.4988 93.0287L75.4394 97.1873L72.5111 83.7982L59.122 80.8699L63.2806 67.8105L53.1494 58.5799L63.2806 49.3494L59.122 36.29L72.5111 33.3617L75.4394 19.9726L88.4988 24.1312L97.7294 14Z" fill="white" stroke="white" stroke-width="3"/>
<path d="M83.1494 76.9159L115.841 41.5902" stroke="black" stroke-width="3"/>
<path d="M111.86 60.6854C115.3 61.4223 113.966 66.5573 112.444 69.3936C110.534 72.6893 108.44 77.5548 103.753 76.5512C100.244 75.8 100.519 71.3565 102.229 67.6553C104.826 62.0395 109.279 60.1327 111.86 60.6854Z" stroke="black" stroke-width="3"/>
<path d="M96.7266 39.7305C100.167 40.4674 98.5871 45.1851 97.3763 48.478C96.1654 52.0704 93.7707 56.6991 88.6199 55.5962C85.1113 54.845 85.3853 50.4015 87.0963 46.7004C89.6924 41.0846 94.1463 39.1778 96.7266 39.7305Z" stroke="black" stroke-width="3"/>
<path d="M2 87.2377H77.6084L65.9318 26.5026H13.6766L2 87.2377Z" stroke="black" stroke-width="3"/>
<path d="M30.1974 25.3532C30.1961 24.8141 27.7933 2 40.8883 2C52.1958 2 51.0053 24.8141 51.0053 24.8141" stroke="black" stroke-width="3"/>
</svg>
