<svg width="236" height="141" viewBox="0 0 236 141" fill="none" xmlns="http://www.w3.org/2000/svg">
<g clip-path="url(#clip0)">
<path d="M31.3994 87.3478H110.026L104.027 134.835C103.711 137.334 101.585 139.208 99.0662 139.208H42.3597C39.8406 139.208 37.7149 137.334 37.3991 134.835L31.3994 87.3478Z" fill="#FFCAAF"/>
<path d="M110.508 81.9729H27.6865C10.015 70.8955 1.15683 16.7565 43.3934 31.9355C49.9851 -13.6303 115.286 -9.20186 107.746 37.3482C145.043 12.7908 142.533 75.3264 110.508 81.9729Z" fill="#FFCAAF"/>
<path d="M85.5499 44.1783C92.5697 74.6353 93.9822 139.139 93.9822 139.139M177.79 139.139C177.79 139.139 186.584 28.2863 186.584 15.8037C186.584 6.62703 81.0428 -0.0228734 81.0381 16.2676C81.0331 33.2265 166.916 24.4818 177.479 23.7481" stroke="black" stroke-width="3" stroke-linejoin="round"/>
<path d="M184.851 45.4437C188.635 41.2824 199.295 34.8636 209.283 38.4953C221.767 43.0349 227.441 61.1967 218.362 71.4108C211.098 79.5821 191.124 86.9212 182.045 89.5693" stroke="black" stroke-width="3" stroke-linejoin="round"/>
<path d="M0 139L236 139" stroke="black" stroke-width="3"/>
</g>
<defs>
<clipPath id="clip0">
<rect width="236" height="141" fill="white"/>
</clipPath>
</defs>
</svg>
