<svg width="364" height="243" viewBox="0 0 364 243" fill="none" xmlns="http://www.w3.org/2000/svg">
<path d="M149.707 224.38L129.813 20.763C129.526 17.8235 131.836 15.2769 134.789 15.2769H226.767C229.286 15.2769 231.412 17.1506 231.728 19.6497L257.472 223.267C257.85 226.253 255.522 228.894 252.512 228.894H154.683C152.11 228.894 149.957 226.941 149.707 224.38Z" fill="white"/>
<path d="M117 3L139.65 236.653C139.898 239.216 142.052 241.171 144.627 241.171H273.326C276.272 241.171 278.579 238.637 278.304 235.705L273.749 187.076L271.215 160.029M131.495 3H251.253C253.801 3 255.941 4.91568 256.223 7.44784L258.491 27.8606" stroke="black" stroke-width="3"/>
<path d="M350.323 58.5393L362 151.659H260.002L212.848 180L209.883 151.659H192.297L181 41.6404L350.323 39" stroke="black" stroke-width="3"/>
<path d="M29 52V82" stroke="black" stroke-width="3" stroke-linecap="round"/>
<circle cx="29" cy="29" r="29" fill="white"/>
</svg>
