<svg width="194" height="152" viewBox="0 0 194 152" fill="none" xmlns="http://www.w3.org/2000/svg">
<g clip-path="url(#clip0)">
<path d="M49.4845 38.9562C52.1945 40.5066 51.9685 48.8617 51.5168 51.8764C54.4548 51.8764 64.3347 52.976 65.3245 57.4369C69.2316 75.0453 72.609 111.275 68.1452 134.38C67.2419 136.964 63.6313 140.734 59.8374 140.734H27.1094C18.8058 140.734 18.0241 70.0966 21.3575 57.4369C22.8217 51.8764 35.257 51.8764 35.257 51.8764C35.257 48.6463 35.528 41.7986 36.612 40.2482C37.967 38.3102 46.097 37.0182 49.4845 38.9562Z" fill="white"/>
<path d="M95.6113 142.722V84.3364H120.051V142.722H95.6113Z" fill="white"/>
<path d="M68.7438 128.819C68.7438 113.991 85.1196 37.5483 87.6863 23.4649C88.5637 20.9765 91.6997 14.6217 97.2248 9.11021C104.131 2.22081 114.08 2.66722 114.995 10.0515C115.909 17.4358 87.8267 140.687 79.286 140.678C76.8688 143.089 71.021 134.153 68.7438 128.819Z" fill="white"/>
<path d="M106.409 73.4094L95.7667 141.995H18.2711L6.74121 73.4094H106.409ZM106.409 73.4094H131.679L120.039 141.995H89.632" stroke="black" stroke-width="3"/>
<path d="M19.4831 73.6187L3.79084 43.386C2.06325 40.0576 4.47862 36.0825 8.22864 36.0825H32.069L50.0001 73.6187" stroke="black" stroke-width="3"/>
<path d="M121.517 74.0648L137.265 43.3646C138.971 40.0373 136.555 36.0825 132.816 36.0825H108.931L90.9999 74.0648" stroke="black" stroke-width="3"/>
<path d="M183.543 142.722H150.324V81.5557H183.543V142.722Z" fill="white"/>
<path d="M192.5 84.6545V149.502H142.057V84.8421C142.057 80.917 143.305 77.0937 145.621 73.9249L146.848 72.2463L147.137 71.8509V71.3611V65.4951H187.599V71.3611V71.8368L187.873 72.2255L189.119 73.9928C191.319 77.1127 192.5 80.8368 192.5 84.6545Z" stroke="black" stroke-width="3"/>
</g>
<defs>
<clipPath id="clip0">
<rect width="194" height="152" fill="white"/>
</clipPath>
</defs>
</svg>
