<svg width="236" height="149" viewBox="0 0 236 149" fill="none" xmlns="http://www.w3.org/2000/svg">
<path d="M116.219 4.40562V2.18054L185.156 43.8802V146.949H137.645C137.645 146.949 137.645 124.919 148.824 106.036C157.408 91.5376 178.635 75.0241 178.635 75.0241C142.988 70.6117 116.219 40.3245 116.219 4.40562Z" fill="#9CA5F4"/>
<path d="M33 52.1598L116.342 2L202 52.1598" stroke="black" stroke-width="3"/>
<path d="M77.2542 81.5721C72.9196 74.0643 62.8697 67.9915 58.1375 65.4346C56.9133 64.7731 55.4829 65.5989 55.4437 66.9899C55.292 72.3665 55.5262 84.1064 59.8608 91.6142C64.1954 99.1219 74.2454 105.195 78.9775 107.752C80.2018 108.413 81.6321 107.587 81.6714 106.196C81.8231 100.82 81.5888 89.0798 77.2542 81.5721Z" fill="#9CA5F4"/>
<path d="M94.2337 81.5721C89.8991 74.0643 79.8492 67.9915 75.117 65.4346C73.8928 64.7731 72.4624 65.5989 72.4232 66.9899C72.2715 72.3665 72.5057 84.1064 76.8403 91.6142C81.1749 99.1219 91.2249 105.195 95.957 107.752C97.1813 108.413 98.6116 107.587 98.6509 106.196C98.8026 100.82 98.5683 89.0798 94.2337 81.5721Z" fill="#9CA5F4"/>
<path d="M102.714 57.5961V82.6084H132.016C133.43 72.498 133.673 63.4591 131.162 53.5015C121.529 53.5015 101.665 53.5015 101.665 53.5015" stroke="black" stroke-width="3"/>
<path d="M51.3564 40.8618C51.3564 40.8618 51.3564 94.3284 51.3564 106.056C51.3564 109.171 51.3564 110.584 51.3564 114.543M51.3564 146.949C51.3564 140.527 51.3564 125.492 51.3564 114.543M51.3564 114.543C86.1882 109.142 165.605 113.772 170.559 116.858C176.751 120.716 179.847 136.147 179.847 146.949" stroke="black" stroke-width="3" stroke-linejoin="round"/>
<path d="M0 147H236" stroke="black" stroke-width="3"/>
</svg>
