<svg width="44" height="45" viewBox="0 0 44 45" fill="none" xmlns="http://www.w3.org/2000/svg">
<path d="M21.9953 25.9951C20.1729 25.9951 18.6953 24.5266 18.6953 22.7136C18.6953 20.9014 20.1729 19.4321 21.9953 19.4321C23.8177 19.4321 25.2953 20.9014 25.2953 22.7136C25.2953 24.5266 23.8177 25.9951 21.9953 25.9951Z" fill="white"/>
<path fill-rule="evenodd" clip-rule="evenodd" d="M22.0016 12.8667C19.3129 12.8667 18.9763 12.8782 17.9203 12.9258C14.3249 13.0899 12.3268 15.0737 12.1618 18.6524C12.1131 19.7034 12.1016 20.0381 12.1016 22.7119C12.1016 25.3857 12.1131 25.7213 12.161 26.7714C12.326 30.3469 14.3208 32.334 17.9195 32.4981C18.9763 32.5456 19.3129 32.5571 22.0016 32.5571C24.6903 32.5571 25.0277 32.5456 26.0837 32.4981C29.6758 32.334 31.6789 30.3502 31.8414 26.7714C31.8901 25.7213 31.9016 25.3857 31.9016 22.7119C31.9016 20.0381 31.8901 19.7034 31.8422 18.6532C31.6805 15.0811 29.6832 13.0907 26.0845 12.9266C25.0277 12.8782 24.6903 12.8667 22.0016 12.8667ZM21.9977 17.6528C19.1903 17.6528 16.9141 19.9164 16.9141 22.7083C16.9141 25.5003 19.1903 27.7646 21.9977 27.7646C24.8052 27.7646 27.0814 25.5011 27.0814 22.7083C27.0814 19.9164 24.8052 17.6528 21.9977 17.6528ZM26.0938 17.4512C26.0938 16.7991 26.6259 16.27 27.2826 16.27C27.9384 16.27 28.4697 16.7991 28.4697 17.4512C28.4697 18.1033 27.9384 18.6323 27.2826 18.6323C26.6259 18.6323 26.0938 18.1033 26.0938 17.4512Z" fill="white"/>
</svg>
