<svg width="207" height="133" viewBox="0 0 207 133" fill="none" xmlns="http://www.w3.org/2000/svg">
<path fill-rule="evenodd" clip-rule="evenodd" d="M-3.05176e-05 17.4255V98.5742L30.7632 111.401V34.5875L6.97636 25.1319V21.3839L33.9509 30.7853H99.0615L86.5045 17.4255H-3.05176e-05ZM99.0615 34.5875H34.416V112.924H34.4155L34.4157 112.924H99.0608L99.0615 34.5875Z" fill="white"/>
<path d="M146.583 99.7539C153.018 103.263 163.829 100.294 173.095 96.2449C180.069 93.1978 181.502 65.8431 181.283 50.6527C181.211 45.6586 170.59 44.3205 167.336 48.2172L160.827 65.1126H167.801C167.801 65.1126 169.522 50.289 169.656 53.8797C170.304 71.2304 172.314 91.4897 170.779 93.8156C168.462 97.3246 158.038 96.2449 151.529 94.671C146.893 94.671 148.253 68.5846 147.81 49.1914C147.741 46.1885 140.836 45.2944 133.863 46.2687L126.424 65.1126H134.328C135.258 63.1642 138.366 50.1712 138.496 51.4057C138.496 70.9613 142.122 97.3214 146.583 99.7539Z" fill="white"/>
<path d="M155.408 3.81495C148.971 0.250387 134.278 -0.298013 125.008 3.81495C118.032 6.91029 122.462 49.6434 122.682 65.0745L128.935 65.0745C128.286 47.449 127.807 12.21 129.343 9.8473C131.661 6.28274 142.031 3.81495 148.726 3.81495C153.364 3.81495 157.108 45.3741 157.551 65.0745L165.934 65.0745L165.931 65.0369C163.877 45.1362 159.868 6.28444 155.408 3.81495Z" fill="white"/>
<path d="M125.373 130.738H87.2825C85.2316 95.6827 93.0248 61.796 105.237 50.7273H113.38C108.884 62.1079 96.7052 85.3639 104.543 85.3639C112.022 85.3639 113.38 70.2077 114.775 61.796M184.902 50.7273C202.13 73.6818 205 130.738 205 130.738H162.69H119.686C119.686 130.738 117.984 76.9522 125.373 50.7273H184.902Z" stroke="black" stroke-width="3"/>
</svg>
