<svg width="236" height="145" viewBox="0 0 236 145" fill="none" xmlns="http://www.w3.org/2000/svg">
<path d="M146.247 143L146.247 69" stroke="black" stroke-width="3"/>
<rect x="54.7197" y="94.3672" width="17.9756" height="37.2875" rx="8.98782" fill="#F3B2CD"/>
<rect x="72.6953" y="94.3652" width="17.9756" height="37.2875" rx="8.98782" fill="#F3B2CD"/>
<path d="M175.033 11.4004C181.329 11.4004 186.433 16.5043 186.433 22.8004C186.433 29.0964 181.329 34.2004 175.033 34.2004L61.0116 34.2004C54.7156 34.2004 49.6116 29.0964 49.6116 22.8004C49.6116 16.5043 54.7156 11.4004 61.0116 11.4004L175.033 11.4004Z" fill="#F3B2CD"/>
<rect x="90.6748" y="94.3652" width="17.9756" height="37.2875" rx="8.98782" fill="#F3B2CD"/>
<rect x="126.622" y="94.3652" width="17.9756" height="37.2875" rx="8.98782" fill="#F3B2CD"/>
<rect x="108.65" y="94.3652" width="17.9756" height="37.2875" rx="8.98782" fill="#F3B2CD"/>
<path d="M53.3389 57.5V143.295M184.389 57.5V143.295" stroke="black" stroke-width="3"/>
<path d="M54.2881 111.979L145.097 111.979" stroke="black" stroke-width="3" stroke-linecap="square"/>
<mask id="path-10-inside-1" fill="white">
<path fill-rule="evenodd" clip-rule="evenodd" d="M113.83 0H76.4826V0.000307032H41V40.9826C41 52.8435 50.6152 62.4586 62.4761 62.4586C69.9871 62.4586 76.5975 58.6028 80.4359 52.7627C84.4784 58.6199 91.2372 62.4583 98.8924 62.4583C106.827 62.4583 113.799 58.3346 117.781 52.1134C121.971 58.3526 129.093 62.4583 137.173 62.4583C145.116 62.4583 152.133 58.4908 156.35 52.4294C160.153 58.4555 166.871 62.4583 174.524 62.4583C186.385 62.4583 196 52.8432 196 40.9823V0H160.517H153.048H121.302H113.83Z"/>
</mask>
<path d="M76.4826 0V-3H73.4826V0H76.4826ZM76.4826 0.000307032V3.00031H79.4826V0.000307032H76.4826ZM41 0.000307032V-2.99969H38V0.000307032H41ZM80.4359 52.7627L82.9049 51.0586L80.3751 47.3931L77.9289 51.115L80.4359 52.7627ZM117.781 52.1134L120.271 50.4408L117.72 46.6428L115.254 50.4961L117.781 52.1134ZM156.35 52.4294L158.887 50.8282L156.471 47.0013L153.887 50.7163L156.35 52.4294ZM196 0H199V-3H196V0ZM76.4826 3H113.83V-3H76.4826V3ZM79.4826 0.000307032V0H73.4826V0.000307032H79.4826ZM41 3.00031H76.4826V-2.99969H41V3.00031ZM44 40.9826V0.000307032H38V40.9826H44ZM62.4761 59.4586C52.272 59.4586 44 51.1866 44 40.9826H38C38 54.5003 48.9583 65.4586 62.4761 65.4586V59.4586ZM77.9289 51.115C74.6216 56.147 68.9349 59.4586 62.4761 59.4586V65.4586C71.0393 65.4586 78.5733 61.0587 82.9429 54.4104L77.9289 51.115ZM98.8924 59.4583C92.2646 59.4583 86.4114 56.1391 82.9049 51.0586L77.9669 54.4668C82.5455 61.1007 90.2097 65.4583 98.8924 65.4583V59.4583ZM115.254 50.4961C111.8 55.8922 105.762 59.4583 98.8924 59.4583V65.4583C107.892 65.4583 115.797 60.777 120.307 53.7307L115.254 50.4961ZM137.173 59.4583C130.134 59.4583 123.928 55.8857 120.271 50.4408L115.29 53.786C120.014 60.8195 128.051 65.4583 137.173 65.4583V59.4583ZM153.887 50.7163C150.207 56.0061 144.093 59.4583 137.173 59.4583V65.4583C146.14 65.4583 154.059 60.9756 158.812 54.1426L153.887 50.7163ZM174.524 59.4583C167.943 59.4583 162.164 56.0203 158.887 50.8282L153.813 54.0307C158.143 60.8908 165.799 65.4583 174.524 65.4583V59.4583ZM193 40.9823C193 51.1863 184.728 59.4583 174.524 59.4583V65.4583C188.042 65.4583 199 54.5 199 40.9823H193ZM193 0V40.9823H199V0H193ZM160.517 3H196V-3H160.517V3ZM153.048 3H160.517V-3H153.048V3ZM121.302 3H153.048V-3H121.302V3ZM113.83 3H121.302V-3H113.83V3Z" fill="black" mask="url(#path-10-inside-1)"/>
<path d="M0 143L236 143" stroke="black" stroke-width="3"/>
</svg>
