<svg width="44" height="45" viewBox="0 0 44 45" fill="none" xmlns="http://www.w3.org/2000/svg">
<path fill-rule="evenodd" clip-rule="evenodd" d="M24.5813 27.1754C25.6587 26.9398 26.6978 26.5306 27.6549 25.9536C28.3791 25.5152 28.5973 24.5961 28.141 23.9008C27.6849 23.204 26.7282 22.9943 26.0027 23.4327C23.8346 24.7415 21.0432 24.7411 18.8764 23.4327C18.1509 22.9943 17.1938 23.204 16.7387 23.9008C16.2824 24.5967 16.4999 25.5152 17.2242 25.9536C18.1813 26.53 19.2203 26.9398 20.2977 27.1754L17.3385 30.0162C16.7336 30.5974 16.7336 31.5399 17.3392 32.1212C17.6422 32.4115 18.0387 32.5568 18.4352 32.5568C18.8324 32.5568 19.2295 32.4115 19.5326 32.1212L22.4392 29.3297L25.3484 32.1212C25.9533 32.7024 26.9347 32.7024 27.5402 32.1212C28.1464 31.5399 28.1464 30.5968 27.5402 30.0162L24.5813 27.1754Z" fill="white"/>
<path fill-rule="evenodd" clip-rule="evenodd" d="M27.7197 17.948C27.7197 20.7492 25.3464 23.0278 22.4268 23.0278C19.5078 23.0278 17.1338 20.7492 17.1338 17.948C17.1338 15.1459 19.5078 12.8667 22.4268 12.8667C25.3464 12.8667 27.7197 15.1459 27.7197 17.948ZM24.6252 17.946C24.6252 16.7857 23.6422 15.8423 22.4337 15.8423C21.2262 15.8423 20.2422 16.7857 20.2422 17.946C20.2422 19.1053 21.2262 20.0493 22.4337 20.0493C23.6422 20.0493 24.6252 19.1053 24.6252 17.946Z" fill="white"/>
</svg>
