<svg width="236" height="166" viewBox="0 0 236 166" fill="none" xmlns="http://www.w3.org/2000/svg">
<path d="M114.174 85.8634C110.187 44.2826 140.398 -43.9123 161.566 26.2103C167.246 45.0273 182.47 120.177 141.608 118.461C126.544 117.828 115.672 101.484 114.174 85.8634Z" fill="#A0E6BA"/>
<path d="M70.2304 120.87C125.004 120.87 93.0549 61.9339 70.228 49.9355C50.7595 55.4587 4.0625 120.87 70.2304 120.87Z" fill="#A0E6BA"/>
<path d="M88.0311 163.903L88.0311 135.121C88.0311 132.36 90.2697 130.121 93.0311 130.121L106.271 130.121C109.032 130.121 111.271 132.36 111.271 135.121L111.271 163.903" stroke="black" stroke-width="3" stroke-linejoin="round"/>
<path d="M200 163.999V64.375H149.34V15.0306H49.8047V163.903" stroke="black" stroke-width="3" stroke-linejoin="round"/>
<path d="M92.2559 44.4462H71.1291" stroke="black" stroke-width="3" stroke-linejoin="round"/>
<path d="M92.2559 72.3396H71.1291" stroke="black" stroke-width="3" stroke-linejoin="round"/>
<path d="M92.2559 100.24H71.1291" stroke="black" stroke-width="3" stroke-linejoin="round"/>
<path d="M128.174 44.4462H107.047" stroke="black" stroke-width="3" stroke-linejoin="round"/>
<path d="M128.174 72.3396H107.047" stroke="black" stroke-width="3" stroke-linejoin="round"/>
<path d="M128.174 100.24H107.047" stroke="black" stroke-width="3" stroke-linejoin="round"/>
<path d="M66.3174 110.025V163.903M141.501 110.025V163.903" stroke="black" stroke-width="3" stroke-linejoin="round"/>
<path d="M0 164L236 164" stroke="black" stroke-width="3"/>
</svg>
