<svg width="192" height="135" viewBox="0 0 192 135" fill="none" xmlns="http://www.w3.org/2000/svg">
<path d="M41.4395 84.0668V0H155.39V84.0668H41.4395Z" fill="white"/>
<path d="M123.552 102.888H110.984M73.2794 102.888H85.8475M110.984 102.888H98.4156H85.8475M110.984 102.888V84.0667M85.8475 102.888V84.0667" stroke="black" stroke-width="3"/>
<path d="M27.8234 115.017C27.8234 115.017 28.033 52.6989 25.9383 48.5165C22.8884 42.4268 2 45.2224 2 45.2224C2 45.2224 2.55362 96.7459 2 121.255H57.6386V42.7046L27.8234 42.7046" stroke="black" stroke-width="3"/>
<path d="M88.3594 111.252H163.349L170.471 127.982H94.6434L88.3594 111.252Z" fill="white"/>
<path d="M174.662 127.564C173.992 127.564 167.54 111.252 167.54 111.252H182.622L191 127.564H174.662Z" fill="white"/>
<path d="M85.0088 116.271L90.8739 132.583H188.905L180.526 116.271H92.5496" stroke="black" stroke-width="3"/>
<ellipse cx="14.2079" cy="59.8084" rx="7.12192" ry="7.11012" fill="white"/>
</svg>
