<svg width="482" height="264" viewBox="0 0 482 264" fill="none" xmlns="http://www.w3.org/2000/svg">
<path d="M301.108 8.11331C305.074 3.75977 311.926 3.75977 315.892 8.11332L325.82 19.0097C328.451 21.8977 332.523 22.9888 336.246 21.8034L350.292 17.3307C355.904 15.5436 361.837 18.9692 363.095 24.7227L366.244 39.123C367.079 42.9398 370.06 45.9208 373.877 46.7556L388.277 49.905C394.031 51.1633 397.456 57.0965 395.669 62.7083L391.197 76.7541C390.011 80.4769 391.102 84.5491 393.99 87.1804L404.887 97.108C409.24 101.074 409.24 107.926 404.887 111.892L393.99 121.82C391.102 124.451 390.011 128.523 391.197 132.246L395.669 146.292C397.456 151.904 394.031 157.837 388.277 159.095L373.877 162.244C370.06 163.079 367.079 166.06 366.244 169.877L363.095 184.277C361.837 190.031 355.904 193.456 350.292 191.669L336.246 187.197C332.523 186.011 328.451 187.102 325.82 189.99L315.892 200.887C311.926 205.24 305.074 205.24 301.108 200.887L291.18 189.99C288.549 187.102 284.477 186.011 280.754 187.197L266.708 191.669C261.096 193.456 255.163 190.031 253.905 184.277L250.756 169.877C249.921 166.06 246.94 163.079 243.123 162.244L228.723 159.095C222.969 157.837 219.544 151.904 221.331 146.292L225.803 132.246C226.989 128.523 225.898 124.451 223.01 121.82L212.113 111.892C207.76 107.926 207.76 101.074 212.113 97.108L223.01 87.1804C225.898 84.5491 226.989 80.4769 225.803 76.7541L221.331 62.7083C219.544 57.0965 222.969 51.1633 228.723 49.905L243.123 46.7556C246.94 45.9208 249.921 42.9398 250.756 39.123L253.905 24.7227C255.163 18.9692 261.096 15.5436 266.708 17.3307L280.754 21.8034C284.477 22.9888 288.549 21.8977 291.18 19.0097L301.108 8.11331Z" fill="white"/>
<path d="M49.0235 142.363C50.9619 140.488 54.0381 140.488 55.9765 142.363L63.722 149.856C64.8305 150.929 66.3717 151.429 67.8988 151.213L78.5694 149.704C81.2398 149.326 83.7285 151.134 84.1944 153.791L86.0564 164.406C86.3229 165.925 87.2754 167.236 88.6378 167.959L98.1576 173.01C100.54 174.274 101.491 177.199 100.306 179.622L95.5734 189.304C94.8961 190.69 94.8961 192.31 95.5734 193.696L100.306 203.378C101.491 205.801 100.54 208.726 98.1576 209.99L88.6378 215.041C87.2754 215.764 86.3229 217.075 86.0564 218.594L84.1944 229.209C83.7285 231.866 81.2398 233.674 78.5694 233.296L67.8988 231.787C66.3717 231.571 64.8305 232.071 63.722 233.144L55.9765 240.637C54.0381 242.512 50.9619 242.512 49.0235 240.637L41.278 233.144C40.1695 232.071 38.6283 231.571 37.1012 231.787L26.4306 233.296C23.7602 233.674 21.2715 231.866 20.8056 229.209L18.9436 218.594C18.6771 217.075 17.7246 215.764 16.3622 215.041L6.84237 209.99C4.45999 208.726 3.50938 205.801 4.69379 203.378L9.42661 193.696C10.1039 192.31 10.1039 190.69 9.42661 189.304L4.69379 179.622C3.50938 177.199 4.45999 174.274 6.84237 173.01L16.3622 167.959C17.7246 167.236 18.6771 165.925 18.9436 164.406L20.8056 153.791C21.2715 151.134 23.7602 149.326 26.4306 149.704L37.1012 151.213C38.6283 151.429 40.1695 150.929 41.278 149.856L49.0235 142.363Z" fill="white"/>
<path d="M250.222 52.8328C115.111 45.3279 44 89.8068 44 135.416C44 181.026 114.043 218 200.444 218C271.556 218 364 187.972 364 135.416C364 69.3495 236.294 52.2344 155.56 71.3922" stroke="black" stroke-width="3"/>
<path d="M310.111 232.978L448.328 262.081L450.361 146.558L354.835 126.444L310.111 232.978Z" stroke="black" stroke-width="3"/>
<path d="M385.479 130.702C385.684 129.716 390.073 87.0854 414.012 92.126C434.683 96.4785 423.725 137.726 423.725 137.726" stroke="black" stroke-width="3"/>
</svg>
