<svg width="121" height="116" viewBox="0 0 121 116" fill="none" xmlns="http://www.w3.org/2000/svg">
<path d="M35.9517 34.022C35.9517 34.022 25.5324 45.3625 25.0363 57.689C24.4807 71.4948 30.494 112 30.494 112H69.159C69.159 112 74.0711 63.0505 73.9993 56.7029C73.8767 45.8555 63.5692 35.0123 63.5692 35.0123V9.86545L67.1588 9.86591C68.2634 9.86605 69.159 8.97058 69.159 7.86591V2.00467C69.159 0.900198 68.2637 0.00480817 67.1593 0.00466756L32.4943 0.000254637C31.3896 0.00011401 30.494 0.895585 30.494 2.00025V7.8615C30.494 8.96596 31.3893 9.86135 32.4937 9.8615L35.9517 9.86195V34.022Z" fill="white"/>
<path d="M91.2398 55.7734L82.2654 113.565H16.9178L7.19531 55.7734H91.2398ZM91.2398 55.7734H112.548L102.733 113.565H77.0923" stroke="black" stroke-width="3"/>
<path d="M12.4921 95.7057H7.97521C4.2863 95.7057 1.8675 91.8476 3.47472 88.5272L19.0356 56.3799" stroke="black" stroke-width="3"/>
<path d="M110.292 69.4669L118.257 89.3788C119.571 92.6631 117.152 96.2357 113.615 96.2357H93.5296L78.1699 55.785" stroke="black" stroke-width="3"/>
</svg>
