<svg width="91" height="101" viewBox="0 0 91 101" fill="none" xmlns="http://www.w3.org/2000/svg">
<path d="M15.059 89.4862L7.53601 12.4862C7.24881 9.54662 9.55874 7 12.5123 7H44.0924C46.6113 7 48.7369 8.87378 49.0529 11.3728L58.7885 88.3728C59.1661 91.3594 56.8383 94 53.828 94H20.0353C17.4622 94 15.3092 92.0471 15.059 89.4862Z" fill="white"/>
<path d="M2 2L10.9651 94.4824C11.2135 97.045 13.3672 99 15.9418 99H62.4127C65.3584 99 67.6657 96.4664 67.3909 93.5336L63.5 52M7.90318 2H54.0248C56.5725 2 58.7129 3.91568 58.9942 6.44785L60 15.5" stroke="black" stroke-width="3"/>
<path d="M45.9989 16.0594L87.3419 16.0594L87.3419 52.4715L42.8068 52.4715L42.8068 20.5L61.8347 34.2178C63.6953 35.5592 66.23 35.4625 67.9831 33.9834L81.0004 23" stroke="black" stroke-width="3"/>
</svg>
