<svg width="236" height="143" viewBox="0 0 236 143" fill="none" xmlns="http://www.w3.org/2000/svg">
<path d="M48.1738 83.6855C48.1738 75.0606 58.2246 68.5873 68.803 68.5879C80.442 68.5873 92.6086 74.7396 92.6086 83.6855C92.6086 92.6313 82.5557 99.6674 68.803 98.7796C57.2003 98.0306 48.1738 92.3103 48.1738 83.6855Z" fill="#FFDA70"/>
<path d="M71.9775 51.9042C71.9775 43.2794 82.0283 36.8061 92.6067 36.8066C104.246 36.806 116.412 42.9584 116.412 51.9042C116.412 60.85 106.359 67.8862 92.6067 66.9983C81.004 66.2493 71.9775 60.529 71.9775 51.9042Z" fill="#FFDA70"/>
<path d="M95.7822 83.6855C95.7822 75.0606 105.833 68.5873 116.411 68.5879C128.05 68.5873 140.217 74.7396 140.217 83.6855C140.217 92.6313 130.164 99.6674 116.411 98.7796C104.809 98.0306 95.7822 92.3103 95.7822 83.6855Z" fill="#FFDA70"/>
<path d="M119.586 51.9042C119.586 43.2794 129.637 36.8061 140.215 36.8066C151.854 36.806 164.021 42.9584 164.021 51.9042C164.021 60.85 153.968 67.8862 140.215 66.9983C128.612 66.2493 119.586 60.529 119.586 51.9042Z" fill="#FFDA70"/>
<path d="M144.978 82.1718C144.978 73.547 154.669 67.0737 164.87 67.0742C176.093 67.0736 187.825 73.226 187.825 82.1718C187.825 91.1176 178.131 98.1537 164.87 97.2659C153.682 96.5169 144.978 90.7966 144.978 82.1718Z" fill="#FFDA70"/>
<path d="M169.606 2L191 30.754H45L66.3943 2H169.606Z" stroke="black" stroke-width="3" stroke-linejoin="round"/>
<path d="M51.3477 141.363L54.2239 124.784C54.4209 123.649 54.4201 122.488 54.2218 121.353L51.3477 104.908H185.445L182.272 123.069M185.445 141.229L182.272 123.069M182.272 123.069C142.427 124.026 81.8407 126.265 65.1258 117.157" stroke="black" stroke-width="3" stroke-linejoin="round"/>
<path d="M171.959 89.8384V31.2539" stroke="black" stroke-width="3" stroke-linejoin="round"/>
<path d="M64.1035 89.7623L64.1035 30.8477" stroke="black" stroke-width="3" stroke-linejoin="round"/>
<path d="M0 141L236 141" stroke="black" stroke-width="3"/>
</svg>
