<svg width="44" height="45" viewBox="0 0 44 45" fill="none" xmlns="http://www.w3.org/2000/svg">
<path fill-rule="evenodd" clip-rule="evenodd" d="M34.3493 17.1084C34.5231 16.5534 34.3493 16.1455 33.5213 16.1455H30.7836C30.0874 16.1455 29.7665 16.4978 29.5924 16.8863C29.5924 16.8863 28.2003 20.1335 26.2279 22.2426C25.5899 22.8532 25.2999 23.0474 24.9518 23.0474C24.7777 23.0474 24.5259 22.8532 24.5259 22.2982V17.1084C24.5259 16.4423 24.3238 16.1455 23.7436 16.1455L19.4415 16.1455C19.0063 16.1455 18.7447 16.4546 18.7447 16.7476C18.7447 17.379 19.7309 17.5247 19.8326 19.3008V23.1586C19.8326 24.0043 19.673 24.1578 19.3249 24.1578C18.3968 24.1578 16.1391 20.896 14.8002 17.164C14.5378 16.4385 14.2745 16.1455 13.5748 16.1455H10.8371C10.0549 16.1455 9.89844 16.4978 9.89844 16.8863C9.89844 17.5801 10.8265 21.0215 14.22 25.5731C16.4823 28.6812 19.6699 30.3662 22.5703 30.3662C24.3105 30.3662 24.5259 29.992 24.5259 29.3474V26.9981C24.5259 26.2497 24.6907 26.1004 25.2418 26.1004C25.6477 26.1004 26.3439 26.2946 27.9682 27.7932C29.8246 29.5695 30.1306 30.3662 31.1747 30.3662H33.9124C34.6946 30.3662 35.0857 29.992 34.8601 29.2534C34.6133 28.5173 33.7268 27.4495 32.551 26.1836C31.9129 25.4619 30.9557 24.685 30.6656 24.2964C30.2595 23.7968 30.3756 23.5747 30.6656 23.1307C30.6656 23.1307 34.0012 18.6349 34.3493 17.1084Z" fill="white"/>
</svg>
